{
  "accessors": [
    {
      "bufferView": 2,
      "componentType": 5126,
      "count": 3165,
      "max": [
        43.760677337646484,
        120.63412475585938,
        62.67261505126953
      ],
      "min": [
        -43.760677337646484,
        -111.49826049804688,
        -0.7398110032081604
      ],
      "type": "VEC3"
    },
    {
      "bufferView": 2,
      "byteOffset": 37980,
      "componentType": 5126,
      "count": 3165,
      "max": [
        1.0,
        1.0,
        1.0
      ],
      "min": [
        -1.0,
        -1.0,
        -1.0
      ],
      "type": "VEC3"
    },
    {
      "bufferView": 3,
      "componentType": 5126,
      "count": 3165,
      "max": [
        1.0,
        1.0,
        1.0,
        1.0
      ],
      "min": [
        -1.0,
        -1.0,
        -1.0,
        -1.0
      ],
      "type": "VEC4"
    },
    {
      "bufferView": 1,
      "componentType": 5126,
      "count": 3165,
      "max": [
        0.9964153170585632,
        0.9979999661445618
      ],
      "min": [
        0.0020000000949949026,
        0.0020000000949949026
      ],
      "type": "VEC2"
    },
    {
      "bufferView": 0,
      "componentType": 5125,
      "count": 8298,
      "type": "SCALAR"
    },
    {
      "bufferView": 2,
      "byteOffset": 75960,
      "componentType": 5126,
      "count": 52,
      "max": [
        36.060482025146484,
        73.78015899658203,
        60.528770446777344
      ],
      "min": [
        -36.060482025146484,
        -29.256351470947266,
        41.226356506347656
      ],
      "type": "VEC3"
    },
    {
      "bufferView": 2,
      "byteOffset": 76584,
      "componentType": 5126,
      "count": 52,
      "max": [
        0.9957291483879089,
        0.4757586419582367,
        0.8860698938369751
      ],
      "min": [
        -0.9957291483879089,
        -0.6470913290977478,
        -0.0912824347615242
      ],
      "type": "VEC3"
    },
    {
      "bufferView": 3,
      "byteOffset": 50640,
      "componentType": 5126,
      "count": 52,
      "max": [
        0.17073392868041992,
        0.9999729990959167,
        0.4757586419582367,
        1.0
      ],
      "min": [
        -0.18380717933177948,
        -0.9999729990959167,
        -0.6499311923980713,
        1.0
      ],
      "type": "VEC4"
    },
    {
      "bufferView": 1,
      "byteOffset": 25320,
      "componentType": 5126,
      "count": 52,
      "max": [
        0.9141398072242737,
        0.9531270861625671
      ],
      "min": [
        0.0042479936964809895,
        0.020403077825903893
      ],
      "type": "VEC2"
    },
    {
      "bufferView": 1,
      "byteOffset": 25736,
      "componentType": 5126,
      "count": 52,
      "max": [
        0.9141398072242737,
        0.9531270861625671
      ],
      "min": [
        0.0042479936964809895,
        0.020403077825903893
      ],
      "type": "VEC2"
    },
    {
      "bufferView": 0,
      "byteOffset": 33192,
      "componentType": 5125,
      "count": 120,
      "type": "SCALAR"
    },
    {
      "bufferView": 2,
      "byteOffset": 77208,
      "componentType": 5126,
      "count": 4,
      "max": [
        69.83544921875,
        146.25225830078125,
        0.0
      ],
      "min": [
        -69.83544921875,
        -146.25225830078125,
        0.0
      ],
      "type": "VEC3"
    },
    {
      "bufferView": 2,
      "byteOffset": 77256,
      "componentType": 5126,
      "count": 4,
      "max": [
        0.0,
        0.0,
        1.0
      ],
      "min": [
        0.0,
        0.0,
        1.0
      ],
      "type": "VEC3"
    },
    {
      "bufferView": 1,
      "byteOffset": 26152,
      "componentType": 5126,
      "count": 4,
      "max": [
        1.0,
        1.0
      ],
      "min": [
        0.0,
        0.0
      ],
      "type": "VEC2"
    },
    {
      "bufferView": 0,
      "byteOffset": 33672,
      "componentType": 5125,
      "count": 6,
      "type": "SCALAR"
    }
  ],
  "asset": {
    "extras": {
      "author": "Renafox (https://sketchfab.com/kryik1023)",
      "license": "CC-BY-NC-4.0 (http://creativecommons.org/licenses/by-nc/4.0/)",
      "source": "https://sketchfab.com/3d-models/pontiac-ventura-57ea22641c9544d49c186421c3a95bb4",
      "title": "Pontiac Ventura"
    },
    "generator": "Sketchfab-12.68.0",
    "version": "2.0"
  },
  "bufferViews": [
    {
      "buffer": 0,
      "byteLength": 33696,
      "name": "floatBufferViews",
      "target": 34963
    },
    {
      "buffer": 0,
      "byteLength": 26184,
      "byteOffset": 33696,
      "byteStride": 8,
      "name": "floatBufferViews",
      "target": 34962
    },
    {
      "buffer": 0,
      "byteLength": 77304,
      "byteOffset": 59880,
      "byteStride": 12,
      "name": "floatBufferViews",
      "target": 34962
    },
    {
      "buffer": 0,
      "byteLength": 51472,
      "byteOffset": 137184,
      "byteStride": 16,
      "name": "floatBufferViews",
      "target": 34962
    }
  ],
  "buffers": [
    {
      "byteLength": 188656,
      "uri": "scene.bin"
    }
  ],
  "images": [
    {
      "uri": "textures/Material_68_baseColor.png"
    },
    {
      "uri": "textures/Material_68_metallicRoughness.png"
    },
    {
      "uri": "textures/Material_68_emissive.png"
    },
    {
      "uri": "textures/Material_68_normal.png"
    },
    {
      "uri": "textures/Material_69_baseColor.png"
    },
    {
      "uri": "textures/Material_100_baseColor.png"
    }
  ],
  "materials": [
    {
      "doubleSided": true,
      "emissiveFactor": [
        1.0,
        1.0,
        1.0
      ],
      "emissiveTexture": {
        "index": 2
      },
      "name": "Material_68",
      "normalTexture": {
        "index": 3
      },
      "occlusionTexture": {
        "index": 1
      },
      "pbrMetallicRoughness": {
        "baseColorTexture": {
          "index": 0
        },
        "metallicRoughnessTexture": {
          "index": 1
        }
      }
    },
    {
      "alphaMode": "BLEND",
      "doubleSided": true,
      "name": "Material_69",
      "normalTexture": {
        "index": 3
      },
      "occlusionTexture": {
        "index": 1
      },
      "pbrMetallicRoughness": {
        "baseColorTexture": {
          "index": 4
        },
        "metallicRoughnessTexture": {
          "index": 1
        }
      }
    },
    {
      "alphaMode": "BLEND",
      "doubleSided": true,
      "name": "Material_100",
      "pbrMetallicRoughness": {
        "baseColorTexture": {
          "index": 5
        },
        "metallicFactor": 0.0
      }
    }
  ],
  "meshes": [
    {
      "name": "ventura_Material #68_0",
      "primitives": [
        {
          "attributes": {
            "NORMAL": 1,
            "POSITION": 0,
            "TANGENT": 2,
            "TEXCOORD_0": 3
          },
          "indices": 4,
          "material": 0,
          "mode": 4
        }
      ]
    },
    {
      "name": "Object001_Material #69_0",
      "primitives": [
        {
          "attributes": {
            "NORMAL": 6,
            "POSITION": 5,
            "TANGENT": 7,
            "TEXCOORD_0": 8,
            "TEXCOORD_1": 9
          },
          "indices": 10,
          "material": 1,
          "mode": 4
        }
      ]
    },
    {
      "name": "Plane001_Material #100_0",
      "primitives": [
        {
          "attributes": {
            "NORMAL": 12,
            "POSITION": 11,
            "TEXCOORD_0": 13
          },
          "indices": 14,
          "material": 2,
          "mode": 4
        }
      ]
    }
  ],
  "nodes": [
    {
      "children": [
        1
      ],
      "matrix": [
        -0.006847533863037825,
        2.2203940361333957e-16,
        -0.9999765753746033,
        0.0,
        -0.9999765753746033,
        -2.235650628763603e-16,
        0.006847533863037825,
        0.0,
        -2.2203940361333957e-16,
        1.0,
        2.235650628763603e-16,
        0.0,
        -3.280829906463623,
        7.531111812056649e-16,
        -3.3917112350463867,
        1.0
      ],
      "name": "Sketchfab_model"
    },
    {
      "children": [
        2
      ],
      "matrix": [
        1.0,
        0.0,
        0.0,
        0.0,
        0.0,
        0.0,
        1.0,
        0.0,
        0.0,
        -1.0,
        0.0,
        0.0,
        0.0,
        0.0,
        0.0,
        1.0
      ],
      "name": "ventura.FBX"
    },
    {
      "children": [
        3,
        5,
        7
      ],
      "name": "RootNode"
    },
    {
      "children": [
        4
      ],
      "matrix": [
        1.0,
        0.0,
        0.0,
        0.0,
        0.0,
        2.220446049250313e-16,
        -1.0,
        0.0,
        0.0,
        1.0,
        2.220446049250313e-16,
        0.0,
        0.0,
        0.0,
        0.0,
        1.0
      ],
      "name": "ventura"
    },
    {
      "mesh": 0,
      "name": "ventura_Material #68_0"
    },
    {
      "children": [
        6
      ],
      "matrix": [
        1.0,
        0.0,
        0.0,
        0.0,
        0.0,
        2.220446049250313e-16,
        -1.0,
        0.0,
        0.0,
        1.0,
        2.220446049250313e-16,
        0.0,
        0.0,
        0.0,
        0.0,
        1.0
      ],
      "name": "Object001"
    },
    {
      "mesh": 1,
      "name": "Object001_Material #69_0"
    },
    {
      "children": [
        8
      ],
      "matrix": [
        1.0,
        0.0,
        0.0,
        0.0,
        0.0,
        2.220446049250313e-16,
        -1.0,
        0.0,
        0.0,
        1.0,
        2.220446049250313e-16,
        0.0,
        -3.324687957763672,
        -1.2507514953613281,
        -0.066070556640625,
        1.0
      ],
      "name": "Plane001"
    },
    {
      "mesh": 2,
      "name": "Plane001_Material #100_0"
    }
  ],
  "samplers": [
    {
      "magFilter": 9729,
      "minFilter": 9987,
      "wrapS": 10497,
      "wrapT": 10497
    }
  ],
  "scene": 0,
  "scenes": [
    {
      "name": "Sketchfab_Scene",
      "nodes": [
        0
      ]
    }
  ],
  "textures": [
    {
      "sampler": 0,
      "source": 0
    },
    {
      "sampler": 0,
      "source": 1
    },
    {
      "sampler": 0,
      "source": 2
    },
    {
      "sampler": 0,
      "source": 3
    },
    {
      "sampler": 0,
      "source": 4
    },
    {
      "sampler": 0,
      "source": 5
    }
  ]
}
